HIERARCHY
ROOT Hips
{
	OFFSET 0.00 0.00 0.00
	CHANNELS 6 Xposition Yposition Zposition Xrotation Yrotation Zrotation
	JOINT Spine
	{
		OFFSET 0.00000 7.50895 0.00000
		CHANNELS 3 Xrotation Yrotation Zrotation
		JOINT Head
		{
			OFFSET 0.00000 13.86115 0.00000
			CHANNELS 3 Xrotation Yrotation Zrotation
			End Site
			{
				OFFSET 0.00000 4.52755 0.00000
			}
		}
		JOINT LeftShoulder
		{
			OFFSET 0.00000 8.20478 0.00000
			CHANNELS 3 Xrotation Yrotation Zrotation
			JOINT LeftArm
			{
				OFFSET 6.63596 0.00000 0.00000
				CHANNELS 3 Xrotation Yrotation Zrotation
				JOINT LeftForeArm
				{
					OFFSET 10.27422 0.00000 0.00000
					CHANNELS 3 Yrotation Zrotation Xrotation
					JOINT LeftHand
					{
						OFFSET 8.52215 0.00000 0.00000
						CHANNELS 3 Xrotation Yrotation Zrotation
						JOINT LeftHandThumb1
						{
							OFFSET 0.00000 0.00000 0.00000
							CHANNELS 3 Xrotation Zrotation Yrotation
							End Site
							{
								OFFSET 0.00000 0.00000 3.93700
							}
						}
						End Site
						{
							OFFSET 3.93700 0.00000 0.00000
						}
					}
				}
			}
		}
		JOINT RightShoulder
		{
			OFFSET 0.00000 8.20478 0.00000
			CHANNELS 3 Xrotation Yrotation Zrotation
			JOINT RightArm
			{
				OFFSET -6.63596 0.00000 0.00000
				CHANNELS 3 Xrotation Yrotation Zrotation
				JOINT RightForeArm
				{
					OFFSET -10.27422 0.00000 0.00000
					CHANNELS 3 Yrotation Zrotation Xrotation
					JOINT RightHand
					{
						OFFSET -8.52215 0.00000 0.00000
						CHANNELS 3 Xrotation Yrotation Zrotation
						JOINT RightHandThumb1
						{
							OFFSET 0.00000 0.00000 0.00000
							CHANNELS 3 Xrotation Zrotation Yrotation
							End Site
							{
								OFFSET 0.00000 0.00000 3.93700
							}
						}
						End Site
						{
							OFFSET -3.93700 0.00000 0.00000
						}
					}
				}
			}
		}
	}
	JOINT LeftUpLeg
	{
		OFFSET 3.00056 0.00000 0.00000
		CHANNELS 3 Xrotation Yrotation Zrotation
		JOINT LeftLeg
		{
			OFFSET 0.00000 -16.49085 0.00000
			CHANNELS 3 Xrotation Yrotation Zrotation
			JOINT LeftFoot
			{
				OFFSET 0.00000 -14.55658 0.00000
				CHANNELS 3 Xrotation Yrotation Zrotation
				JOINT LeftToeBase
				{
					OFFSET 0.00000 -1.25038 4.66650
					CHANNELS 3 Xrotation Yrotation Zrotation
					End Site
					{
						OFFSET 0.00000 0.00000 2.95275
					}
				}
			}
		}
	}
	JOINT RightUpLeg
	{
		OFFSET -3.00056 0.00000 0.00000
		CHANNELS 3 Xrotation Yrotation Zrotation
		JOINT RightLeg
		{
			OFFSET 0.00000 -16.49085 0.00000
			CHANNELS 3 Xrotation Yrotation Zrotation
			JOINT RightFoot
			{
				OFFSET 0.00000 -14.55658 0.00000
				CHANNELS 3 Xrotation Yrotation Zrotation
				JOINT RightToeBase
				{
					OFFSET 0.00000 -1.25038 4.66650
					CHANNELS 3 Xrotation Yrotation Zrotation
					End Site
					{
						OFFSET 0.00000 0.00000 2.95275
					}
				}
			}
		}
	}
}
MOTION
Frames: 17
Frame Time: 0.008333
 0.4467 33.0780 -7.5787 8.8107 3.6309 -2.1784 -9.5051 3.0730 3.4192 -7.0840 -9.6648 5.9311 8.3954 17.5920 26.3173 -29.7619 -7.4871 -26.6991 -14.8595 -0.0000 9.4953 3.5620 24.7619 -8.4534 33.1476 -0.0000 26.2537 -24.1816 -5.6464 -38.0237 -3.4203 -8.4521 30.3321 15.4751 -0.0000 28.0507 1.9058 -9.7478 11.1184 32.8623 0.0000 -24.3270 -2.8767 5.1720 4.3494 -1.0195 -0.0000 -0.0000 -8.7182 10.5207 -13.0775 7.7309 -0.0000 -0.0000 -2.9920 -7.2374 0.5483 0.6507 0.0000 0.0000 -7.7146 -5.2870 -1.1458 -1.1068 0.0000 0.0000
 0.4431 33.0786 -7.5764 8.8154 3.6072 -2.1766 -9.4951 3.0931 3.4462 -7.0987 -9.6819 5.8979 8.3873 17.5764 26.3023 -29.7757 -7.4441 -26.7337 -14.8509 -0.0000 9.5556 3.5618 24.7102 -8.4692 33.1476 -0.0000 26.2537 -24.1672 -5.6599 -38.0328 -3.4445 -8.4373 30.3328 15.4750 -0.0000 28.0387 1.9111 -9.7580 11.1378 32.8623 0.0000 -24.3270 -2.8825 5.2441 4.3653 -1.0203 -0.0000 -0.0000 -8.6808 10.4807 -13.2449 7.7290 0.0000 -0.0000 -3.0201 -7.2184 0.5521 0.7002 0.0000 0.0000 -7.7354 -5.2860 -1.1517 -1.1281 0.0000 0.0000
 0.4392 33.0789 -7.5734 8.8177 3.5831 -2.1659 -9.4875 3.1076 3.4560 -7.1051 -9.6858 5.8723 8.4387 17.6079 26.2565 -29.8183 -7.4567 -26.7441 -14.8305 -0.0000 9.5670 3.5798 24.6708 -8.5241 33.1476 -0.0000 26.2537 -24.1570 -5.6577 -38.0319 -3.4469 -8.4137 30.3354 15.4543 -0.0000 27.9798 1.9036 -9.7636 11.0887 32.8623 0.0000 -24.3270 -2.8832 5.3081 4.3697 -1.0173 -0.0000 -0.0000 -8.6682 10.4481 -13.2849 7.7419 -0.0000 0.0000 -3.0405 -7.1683 0.5484 0.7411 0.0000 0.0000 -7.7590 -5.3121 -1.1734 -1.0955 0.0000 -0.0000
 0.4339 33.0796 -7.5715 8.8227 3.5528 -2.1636 -9.4795 3.1241 3.4794 -7.1191 -9.6779 5.8402 8.5018 17.6544 26.2170 -29.9012 -7.4588 -26.7862 -14.8028 -0.0000 9.4897 3.5641 24.6754 -8.4857 33.1476 -0.0000 26.2537 -24.1625 -5.6477 -38.0278 -3.4441 -8.3796 30.3238 15.4211 -0.0000 27.9361 1.9006 -9.7269 11.1119 32.8623 0.0000 -24.3270 -2.8910 5.3728 4.3881 -1.0111 0.0000 -0.0000 -8.6396 10.4228 -13.4196 7.7577 0.0000 -0.0000 -3.0707 -7.1308 0.5546 0.7915 0.0000 0.0000 -7.7804 -5.3197 -1.1794 -1.0978 0.0000 -0.0000
 0.4273 33.0807 -7.5693 8.8290 3.5181 -2.1732 -9.4745 3.1384 3.5103 -7.1326 -9.6861 5.8151 8.4901 17.6527 26.1950 -29.8814 -7.4433 -26.8030 -14.7919 -0.0000 9.5591 3.5840 24.6796 -8.5312 33.1476 -0.0000 26.2537 -24.1734 -5.6260 -38.0081 -3.4574 -8.3739 30.3018 15.4104 -0.0000 27.9341 1.9058 -9.7440 11.1230 32.8623 0.0000 -24.3270 -2.9027 5.4302 4.4198 -1.0002 -0.0000 0.0000 -8.6276 10.4219 -13.5709 7.8122 0.0000 0.0000 -3.1137 -7.1062 0.5773 0.8700 0.0000 0.0000 -7.8014 -5.3126 -1.2239 -1.1437 -0.0000 -0.0000
 0.4213 33.0813 -7.5672 8.8287 3.4828 -2.1607 -9.4566 3.1663 3.5165 -7.1533 -9.7004 5.7905 8.5227 17.6709 26.1729 -29.9153 -7.4371 -26.8430 -14.7476 -0.0000 9.6165 3.5690 24.6364 -8.5097 33.1476 -0.0000 26.2537 -24.1918 -5.6056 -37.9985 -3.4618 -8.3840 30.2901 15.4079 -0.0000 27.9231 1.9041 -9.7405 11.1167 32.8623 0.0000 -24.3270 -2.9137 5.5096 4.4307 -0.9755 -0.0000 0.0000 -8.6075 10.3908 -13.7149 7.7794 -0.0000 -0.0000 -3.1503 -7.0846 0.5761 0.9409 0.0000 0.0000 -7.8333 -5.3118 -1.2399 -1.1265 0.0000 -0.0000
 0.4135 33.0819 -7.5648 8.8272 3.4392 -2.1550 -9.4410 3.2023 3.5402 -7.1695 -9.7275 5.7444 8.5419 17.6903 26.1663 -29.9346 -7.4009 -26.9223 -14.7879 -0.0000 9.6451 3.6122 24.7329 -8.5804 33.1476 -0.0000 26.2537 -24.2023 -5.5848 -38.0180 -3.4757 -8.4061 30.3060 15.4152 -0.0000 27.9596 1.9056 -9.7589 11.1052 32.8623 0.0000 -24.3270 -2.9188 5.5812 4.4521 -0.9613 -0.0000 -0.0000 -8.5706 10.3610 -13.8236 7.6852 0.0000 -0.0000 -3.1944 -7.0569 0.5789 1.0362 0.0000 0.0000 -7.8864 -5.2831 -1.1965 -1.1831 -0.0000 -0.0000
 0.4050 33.0828 -7.5639 8.8369 3.3883 -2.1537 -9.4325 3.2563 3.5707 -7.2008 -9.7542 5.6907 8.5288 17.6557 26.1578 -29.8990 -7.3359 -26.9674 -14.8389 -0.0000 9.6438 3.6024 24.6348 -8.5889 33.1476 -0.0000 26.2537 -24.2137 -5.5738 -38.0538 -3.4928 -8.4573 30.3393 15.4763 -0.0000 28.0142 1.9051 -9.8660 10.9861 32.8623 0.0000 -24.3270 -2.9338 5.6099 4.4782 -0.9422 0.0000 0.0000 -8.5549 10.3792 -13.9389 7.7724 0.0000 -0.0000 -3.2596 -7.0632 0.5921 1.1413 -0.0000 -0.0000 -7.9342 -5.2432 -1.2157 -1.1084 0.0000 0.0000
 0.3968 33.0837 -7.5620 8.8358 3.3445 -2.1471 -9.4111 3.2932 3.6006 -7.2312 -9.7240 5.6645 8.4916 17.6204 26.1352 -29.8476 -7.2999 -26.9958 -14.8315 -0.0000 9.6783 3.5928 24.5996 -8.5776 33.1476 -0.0000 26.2537 -24.2155 -5.5760 -38.0771 -3.4974 -8.4383 30.3519 15.4733 -0.0000 28.0064 1.8983 -9.8305 10.9861 32.8623 0.0000 -24.3270 -2.9400 5.6456 4.5012 -0.9161 0.0000 0.0000 -8.5211 10.3963 -14.0935 7.6831 -0.0000 0.0000 -3.3181 -7.1016 0.5999 1.2603 -0.0000 -0.0000 -7.9814 -5.1768 -1.2650 -1.1712 -0.0000 0.0000
 0.3873 33.0846 -7.5611 8.8406 3.2798 -2.1430 -9.3949 3.3177 3.6323 -7.2521 -9.6905 5.6288 8.4743 17.6241 26.0903 -29.8224 -7.2894 -27.0017 -14.7847 -0.0000 9.6346 3.6352 24.7031 -8.6440 33.1476 -0.0000 26.2537 -24.2264 -5.5264 -38.0792 -3.4428 -8.4285 30.3643 15.5086 -0.0000 27.9813 1.9051 -9.8836 10.9674 32.8623 0.0000 -24.3270 -2.9507 5.6762 4.5206 -0.8869 0.0000 -0.0000 -8.5156 10.5010 -14.2620 7.7108 -0.0000 -0.0000 -3.3871 -7.1023 0.6111 1.3833 0.0000 0.0000 -8.0361 -5.1115 -1.3142 -1.1571 -0.0000 -0.0000
 0.3766 33.0855 -7.5592 8.8328 3.2185 -2.1330 -9.3664 3.3434 3.6605 -7.2593 -9.6633 5.5821 8.5355 17.6820 26.0409 -29.8671 -7.3017 -27.0564 -14.7588 -0.0000 9.4858 3.5585 24.7704 -8.4426 33.1476 -0.0000 26.2537 -24.2421 -5.4832 -38.0636 -3.4127 -8.3984 30.3463 15.4750 -0.0000 27.9003 1.8913 -9.7369 11.0477 32.8623 0.0000 -24.3270 -2.9494 5.7083 4.5411 -0.8631 0.0000 -0.0000 -8.4935 10.5646 -14.4002 7.7462 0.0000 -0.0000 -3.4291 -7.0848 0.6214 1.4773 0.0000 -0.0000 -8.0736 -5.0683 -1.3433 -1.1806 0.0000 0.0000
 0.3644 33.0859 -7.5581 8.8298 3.1503 -2.1203 -9.3459 3.4036 3.6744 -7.2657 -9.6646 5.5575 8.5702 17.7096 26.0278 -29.8759 -7.3307 -27.1331 -14.7061 -0.0000 9.5040 3.4834 24.8210 -8.2508 33.1476 -0.0000 26.2537 -24.2222 -5.4848 -38.0345 -3.4667 -8.3912 30.3053 15.4404 -0.0000 27.9400 1.8957 -9.7032 11.1101 32.8623 0.0000 -24.3270 -2.9605 5.7516 4.5642 -0.8246 -0.0000 -0.0000 -8.4810 10.6178 -14.5287 7.7183 -0.0000 0.0000 -3.4507 -6.9729 0.6343 1.5135 -0.0000 0.0000 -8.0974 -5.1255 -1.3443 -1.1719 0.0000 -0.0000
 0.3524 33.0869 -7.5581 8.8316 3.0985 -2.1176 -9.3247 3.4590 3.7159 -7.2929 -9.6658 5.4844 8.5590 17.6792 26.0093 -29.8702 -7.2610 -27.1941 -14.7813 -0.0000 9.5196 3.5827 24.9319 -8.4483 33.1476 -0.0000 26.2537 -24.2047 -5.4958 -38.0449 -3.5151 -8.4053 30.2936 15.4544 -0.0000 27.9478 1.8950 -9.7029 11.1066 32.8623 0.0000 -24.3270 -2.9873 5.7835 4.6020 -0.7779 0.0000 0.0000 -8.4740 10.6305 -14.6695 7.7349 0.0000 -0.0000 -3.5336 -7.0128 0.6533 1.6709 0.0000 0.0000 -8.1672 -5.0389 -1.4282 -1.1899 0.0000 0.0000
 0.3380 33.0876 -7.5578 8.8268 3.0305 -2.1166 -9.2947 3.5274 3.7620 -7.3293 -9.6471 5.4035 8.5440 17.6352 25.9776 -29.8548 -7.1956 -27.2330 -14.7828 -0.0000 9.6339 3.6481 24.8307 -8.6331 33.1476 -0.0000 26.2537 -24.1933 -5.5138 -38.0827 -3.5796 -8.4172 30.3261 15.4839 -0.0000 27.9942 1.9035 -9.8193 11.0273 32.8623 0.0000 -24.3270 -3.0062 5.8203 4.6506 -0.7268 0.0000 -0.0000 -8.4561 10.6383 -14.8445 7.7217 -0.0000 -0.0000 -3.6026 -6.9914 0.6789 1.8127 0.0000 0.0000 -8.2205 -5.0163 -1.4507 -1.2152 0.0000 0.0000
 0.3230 33.0884 -7.5572 8.8133 2.9545 -2.0967 -9.2482 3.5587 3.7806 -7.3579 -9.5939 5.3651 8.5370 17.6511 25.9476 -29.8156 -7.1680 -27.2717 -14.7656 -0.0000 9.6635 3.6651 24.7723 -8.6917 33.1476 -0.0000 26.2537 -24.2148 -5.4437 -38.0964 -3.5239 -8.4048 30.3530 15.4701 -0.0000 27.9175 1.8957 -9.7315 11.0790 32.8623 0.0000 -24.3270 -3.0238 5.8923 4.6632 -0.6483 -0.0000 -0.0000 -8.4825 10.7527 -15.0027 7.8668 -0.0000 0.0000 -3.6713 -6.9768 0.6854 1.9665 -0.0000 -0.0000 -8.3042 -4.9559 -1.5058 -1.1682 0.0000 -0.0000
 0.3035 33.0895 -7.5564 8.8020 2.8596 -2.0951 -9.2048 3.6061 3.8134 -7.3815 -9.5615 5.3177 8.6039 17.7187 25.8668 -29.9359 -7.1979 -27.3097 -14.6249 -0.0000 9.7219 3.5657 24.7591 -8.4630 33.1476 -0.0000 26.2537 -24.2384 -5.3732 -38.0872 -3.5180 -8.4254 30.3594 15.4742 -0.0000 27.9404 1.8764 -9.7061 10.9967 32.8623 0.0000 -24.3270 -3.0455 5.9955 4.7235 -0.5814 -0.0000 -0.0000 -8.4445 10.7280 -15.2215 7.7032 -0.0000 -0.0000 -3.7453 -6.9435 0.7191 2.1256 -0.0000 -0.0000 -8.3707 -4.8905 -1.5616 -1.1674 -0.0000 0.0000
 0.2847 33.0908 -7.5558 8.7944 2.7643 -2.0760 -9.1674 3.6718 3.8327 -7.4058 -9.5327 5.2711 8.6297 17.7243 25.8403 -29.9555 -7.1052 -27.3554 -14.7119 -0.0000 9.7664 3.6187 24.7881 -8.5778 33.1476 -0.0000 26.2537 -24.2438 -5.3599 -38.0582 -3.4872 -8.3562 30.3281 15.4487 -0.0000 27.8546 1.8750 -9.6238 11.0793 32.8623 0.0000 -24.3270 -3.0746 6.1310 4.7620 -0.5077 -0.0000 -0.0000 -8.4448 10.7143 -15.4356 7.8145 0.0000 -0.0000 -3.8167 -6.8824 0.7378 2.2671 0.0000 0.0000 -8.4363 -4.8732 -1.6107 -1.1447 0.0000 -0.0000
